<svg width="85" height="85" viewBox="0 0 85 85" fill="none" xmlns="http://www.w3.org/2000/svg">
<path d="M4.26321 80.8677C9.76402 86.3774 18.6653 86.3774 24.2661 80.8677L42.5688 62.5354L60.8715 80.8677C66.3723 86.3774 75.2736 86.3774 80.8744 80.8677C86.3752 75.358 86.3752 66.4423 80.8744 60.8324L62.4717 42.5L80.7744 24.1676C86.2752 18.6579 86.2752 9.74219 80.7744 4.13229C75.2736 -1.37743 66.3723 -1.37743 60.7715 4.13229L42.4688 22.5648L24.1661 4.23247C18.6653 -1.27726 9.76401 -1.27726 4.16319 4.23247C-1.43763 9.74219 -1.33761 18.6579 4.16319 24.2678L22.4659 42.5L4.16319 60.8324C-1.33761 66.3421 -1.3376 75.358 4.26321 80.8677Z" fill="black"/>
</svg>
